<?xml version="1.0" encoding="UTF-8"?>
<svg version="1.1" viewBox="0 0 1000 1000" xmlns="http://www.w3.org/2000/svg">
 <g transform="translate(0 -52.362)">
  <circle cx="500" cy="552.36" r="443.92" fill="#409fe2"/>
  <path d="m782.55 372.44c-0.49791 0.015-0.99353-5e-3 -1.4812 0.17294l-553.42 108.24c-7.1352 1.3934-9.3838 10.495-3.7205 15.054l109.34 88.361v121.29c-0.0201 7.6354 9.2143 11.469 14.606 6.063l63.937-63.972 117.23 94.734c3.8563 3.1007 9.5314 2.298 12.367-1.7569l248.3-354.71c3.9831-5.7252-0.1925-13.553-7.1653-13.435v-0.0352zm0.17292 8.5777-400.32 233.33-40.614 79.68 6.2353-108.62 434.7-204.39z" color="#000000" color-rendering="auto" fill-opacity=".13333" image-rendering="auto" shape-rendering="auto" solid-color="#000000" style="block-progression:tb;isolation:auto;mix-blend-mode:normal;text-decoration-color:#000000;text-decoration-line:none;text-decoration-style:solid;text-indent:0;text-transform:none;white-space:normal"/>
  <path d="m776.55 366.44c-0.49791 0.015-0.99353-5e-3 -1.4812 0.17294l-553.42 108.24c-7.1352 1.3934-9.3838 10.495-3.7205 15.054l109.34 88.361v121.29c-0.0201 7.6354 9.2143 11.469 14.606 6.063l63.937-63.972 117.23 94.734c3.8563 3.1007 9.5314 2.298 12.367-1.7569l248.3-354.71c3.9831-5.7252-0.1925-13.553-7.1653-13.435v-0.0352zm0.17292 8.5777-400.32 233.33-40.614 79.68 6.2353-108.62 434.7-204.39z" color="#000000" color-rendering="auto" fill="#e4ff1e" image-rendering="auto" shape-rendering="auto" solid-color="#000000" style="block-progression:tb;isolation:auto;mix-blend-mode:normal;text-decoration-color:#000000;text-decoration-line:none;text-decoration-style:solid;text-indent:0;text-transform:none;white-space:normal"/>
 </g>
</svg>
